<?xml version="1.0" encoding="utf-8"?>
<!-- Generator: Adobe Illustrator 23.1.0, SVG Export Plug-In . SVG Version: 6.00 Build 0)  -->
<svg version="1.1" id="Layer_1" xmlns="http://www.w3.org/2000/svg" xmlns:xlink="http://www.w3.org/1999/xlink" x="0px" y="0px"
	 viewBox="0 0 360 123.8" style="enable-background:new 0 0 360 123.8;" xml:space="preserve">
<style type="text/css">
	.st0{clip-path:url(#SVGID_2_);}
	.st1{fill:#E1F4FD;}
	.st2{fill:#E39E67;}
	.st3{opacity:0.55;fill:#C08657;}
	.st4{opacity:0.28;fill:#E39E67;}
	.st5{opacity:0.18;fill:#C08657;}
	.st6{opacity:0.43;fill:#967754;}
	.st7{fill:#967754;}
	.st8{fill:#BA9369;}
	.st9{fill:#FFFFFF;}
	.st10{fill:#BFE7FB;}
	.st11{clip-path:url(#SVGID_4_);}
</style>
<g>
	<defs>
		<rect id="SVGID_1_" y="0" width="180" height="123.8"/>
	</defs>
	<clipPath id="SVGID_2_">
		<use xlink:href="#SVGID_1_"  style="overflow:visible;"/>
	</clipPath>
	<g class="st0">
		<rect y="0" class="st1" width="180" height="123.8"/>
		<path class="st2" d="M165.7,78c-3.2,0.1-6.5,0.2-9.7,0.1c-3-0.1-5.9-0.6-8.9-1c-3-0.4-5.9-0.7-8.9-0.5c-3.2,0.2-6.4,0.5-9.6,0.8
			c-6.4,0.5-12.7,1.1-19.1,1.4c-12.6,0.7-25.3,1.2-38,0.2c-6.3-0.5-12.5-1-18.8-0.9c-6.2,0.1-12.5,0.2-18.7,0
			c-11.3-0.3-22.7-2.3-34-1.1v46.8h180v-46C175.2,77.8,170.4,77.9,165.7,78z"/>
		<path class="st3" d="M172.9,113.8c-14.7,0.2-29.2,2.4-43.8,2.9c-7.2,0.2-14.4,0.2-21.5-0.3c-7.3-0.5-14.5-1.3-21.8-1.4
			c-7.3-0.1-14.6,0.3-21.9,0.6c-7.4,0.3-14.8,0.4-22.2,0.4c-13.9-0.1-27.8-0.9-41.6-2.3v10.2h180v-10
			C177.6,113.8,175.3,113.7,172.9,113.8z"/>
		<path class="st3" d="M129.3,99.9c-2.8,0.2-5.7,0.4-8.5,0.7c-2.6,0.3-5.2,0.6-7.8,0.9c-4.5,0.5-9.1,0.9-13.4,2.3
			c0.4,0,0.9,0.1,1.3,0.1c5.7,0.5,11.4-0.3,17.1-0.6c2.9-0.2,5.8-0.2,8.7-0.2c3.1-0.1,6.2-0.1,9.4-0.2c3.1,0,6.2-0.1,9.4-0.1
			c3.1,0,6.3-0.1,9.4,0c6.2,0.2,12.4,1,18.6,1.2c2.2,0.1,4.4,0.1,6.6,0v-5c-5.8,0-11.5,0-17.3,0C151.6,99.1,140.4,99.3,129.3,99.9z"
			/>
		<path class="st4" d="M64.2,111.5c0.2,0,0.5,0,0.7,0c6.3,0.4,12.5,0.9,18.8,1.6c6,0.6,12.1,1.4,18.1,1.7
			c11.6,0.7,23.3,0.4,34.7-2.2c-6.7-0.1-13.5,0-20.2,0c-6.5,0-13.1,0-19.6-0.1c-6.5-0.1-13-0.7-19.4-1
			C72.9,111.3,68.5,111.4,64.2,111.5z"/>
		<path class="st3" d="M22.2,109.5c3-0.3,6.1-0.5,9.1-0.6c3-0.1,6.1-0.1,9.1-0.1c3-0.1,6-0.1,9.1-0.2c3-0.1,6-0.3,9-0.4
			c5.5-0.2,11.1,0.1,16.6-0.7c-5.1-1.2-10.5-0.4-15.7-0.5c-5.6,0-11.1-0.6-16.6-1.1c-5.6-0.5-11.2-0.8-16.8-0.8
			c-8.6-0.1-17.3,0.1-25.9,0.3v6.2c1.4-0.1,2.8-0.1,4.2-0.2C10.2,110.9,16.2,110.1,22.2,109.5z"/>
		<path class="st5" d="M10.1,86.3c4.5-0.1,9,0.1,13.5,0.4c4.5,0.3,8.9,0.9,13.4,1.1c9,0.3,17.9-0.3,26.9,0.8c0.2,0,0.3,0.3,0.1,0.4
			c-3.4,1.1-6.9,1.9-10.4,2.4C41,93.4,27.9,93,16.1,98c1.8,0.4,3.8,0.2,5.7,0c2.1-0.3,4.2-0.6,6.3-0.7c5.7-0.2,11.4-0.3,17.2-0.4
			c10.2-0.2,20.4,0,30.6,0.3c10.3,0.3,20.6,0.1,30.9-0.5c10.2-0.7,20.4-1.6,30.6-1.5c5.1,0,10.3,0.4,15.4,0.5c4.7,0,9.5,0,14.2,0
			c-2.8-0.9-5.7-1.1-8.5-1.5c-13.4-1.9-26.7-4.3-40.1-6.5c-0.2,0-0.2-0.4,0.1-0.4c5.6,0.5,11.2-0.5,16.8-0.7c10-0.4,20,0,30-0.4
			c4.9-0.2,9.9-0.4,14.9-0.4v-7.9c-4.8-0.1-9.6,0-14.3,0.1c-3.2,0.1-6.5,0.2-9.7,0.1c-3-0.1-5.9-0.6-8.9-1c-3-0.4-5.9-0.7-8.9-0.5
			c-3.2,0.2-6.4,0.5-9.6,0.8c-6.4,0.5-12.7,1.1-19.1,1.4c-12.6,0.7-25.3,1.2-38,0.2c-6.3-0.5-12.5-1-18.8-0.9
			c-6.2,0.1-12.5,0.2-18.7,0c-11.3-0.3-22.7-2.3-34-1.1v9.6C3.4,86.5,6.7,86.3,10.1,86.3z"/>
		<path class="st3" d="M101.6,93.1c-4.3-0.3-8.6-0.8-12.9-1c-4.4-0.1-8.8,0.1-13.1,0.4c-0.5,0-1,0.1-1.4,0.1
			c2.5,0.2,4.9,0.5,7.3,0.8c3.7,0.5,7.5,1,11.2,1.4c7.2,0.8,14.7,1.1,21.8-0.9c-0.2,0-0.4-0.1-0.6-0.1
			C109.8,93.2,105.7,93.4,101.6,93.1z"/>
		<path class="st5" d="M127.6,83.8c2.2-0.3,4.5-0.7,6.7-1c-4.6,0-9.2,0.1-13.7,0.5c-5.6,0.4-11.2,1.1-16.7,2.4
			c2.5,0.3,5.1,0.2,7.6,0c2.7-0.2,5.3-0.6,8-0.9C122.1,84.4,124.8,84.2,127.6,83.8z"/>
		<path class="st5" d="M77,85c-2.9-0.4-5.8-0.8-8.7-1c-5.8-0.5-11.6-0.7-17.4-0.7c-0.7,0-1.5,0-2.2,0c0,0,0,0,0,0
			c1.6,0.2,3.1,0.5,4.7,0.8c2.7,0.5,5.5,1.1,8.2,1.4c2.7,0.3,5.5,0.5,8.3,0.4C72.3,85.8,74.7,85.6,77,85z"/>
		<path class="st4" d="M0.1,80.4c12.5,1.3,25.2,2,37.8,1.8c6.3-0.1,12.6-0.6,19-0.7c6.4-0.1,12.7,0,19.1,0.2
			c6.4,0.2,12.9,0.5,19.3,0.5c6.4,0.1,12.8-0.2,19.2-0.6c6.4-0.5,12.9-1.1,19.4-1.4c6.4-0.3,12.8-0.1,19.2,0.1
			c6.5,0.2,13,0.5,19.4,1.1c2.5,0.2,5,0.5,7.6,0.5v-4c-4.8-0.1-9.6,0-14.3,0.1c-3.2,0.1-6.5,0.2-9.7,0.1c-3-0.1-5.9-0.6-8.9-1
			c-3-0.4-5.9-0.7-8.9-0.5c-3.2,0.2-6.4,0.5-9.6,0.8c-6.4,0.5-12.7,1.1-19.1,1.4c-12.6,0.7-25.3,1.2-38,0.2
			c-6.3-0.5-12.5-1-18.8-0.9c-6.2,0.1-12.5,0.2-18.7,0c-11.3-0.3-22.7-2.3-34-1.1v3.3C0,80.4,0.1,80.4,0.1,80.4z"/>
		<g>
			<path class="st6" d="M170.6,102.2c-0.9,0-1.8-0.2-2.8-0.3c-0.9-0.1-1.8-0.1-2.7-0.1c-0.5,0-0.9,0-1.4-0.1c-0.4,0-0.9-0.1-1.3-0.1
				c-0.5,0-0.9,0-1.4,0.1c-0.5,0-0.9,0-1.4,0c-1.1,0-2.1,0.1-3.1,0.2c-0.1,0-0.2,0.2,0,0.2c0.9-0.1,1.9-0.1,2.8,0
				c0.5,0,0.9,0.1,1.4,0.1c0.5,0,0.9-0.1,1.4-0.1c0.5,0,0.9,0.1,1.4,0.1c0.5,0,0.9,0,1.4,0c0.9,0,1.9,0,2.8,0c1,0.1,2,0.4,3,0.4
				C170.7,102.3,170.8,102.2,170.6,102.2z"/>
			<path class="st6" d="M178.5,100.4c-1,0-2.1-0.2-3.1-0.3c-1-0.1-2-0.3-3-0.3c-2.1,0-4.2,0.2-6.2,0.5c-0.1,0-0.2,0.2,0,0.2
				c2.1-0.2,4.1-0.2,6.2-0.3c1,0,2.1,0.1,3.1,0.2c1,0.1,2,0.3,3,0.2C178.6,100.5,178.6,100.4,178.5,100.4z"/>
			<path class="st6" d="M163.6,100c-1.5-0.1-3-0.3-4.6-0.3c-1.6,0-3.1,0.1-4.6,0.2c-0.1,0-0.2,0.2-0.1,0.2c1.5-0.1,3.1-0.1,4.6-0.1
				c1.5,0,3.1,0.2,4.6,0.1C163.6,100.1,163.6,100,163.6,100z"/>
			<g>
				<path class="st7" d="M171.8,98.2c-0.2-0.4-0.5-0.8-0.8-1.1c-0.4-0.3-0.9-0.5-1.4-0.6c-0.5-0.1-1,0-1.5,0.2
					c-0.5,0.2-1,0.5-1.4,0.9c-0.3,0.3-0.5,0.8-0.6,1.2c-0.2-0.2-0.3-0.4-0.5-0.6c-0.4-0.4-1-0.7-1.6-0.8c-1.2-0.1-2.3,0.7-3,1.6
					c-0.3,0.4-0.7,1-0.8,1.5c0,0.2,0,0.5,0.2,0.6c0.2,0.2,0.4,0.2,0.6,0.3c0.6,0.2,1.2,0.2,1.8,0.2c0.7,0,1.4,0,2.1-0.1
					c0.6-0.1,1.2-0.2,1.6-0.6c0.1-0.1,0.2-0.2,0.2-0.3c0.5,0.1,0.9,0.1,1.4,0.1c0.6,0,1.2-0.1,1.8-0.2c0.8-0.1,1.9-0.3,2.1-1.2
					C172.1,99.1,172,98.6,171.8,98.2z"/>
				<path class="st8" d="M166.4,100.9c-0.1,0.1-0.2,0.2-0.3,0.2c-0.3,0.2-0.8,0.3-1.1,0.3c-1.2,0.2-2.4,0.2-3.6,0
					c-0.4-0.1-1-0.2-1-0.7c0-0.3,0.1-0.6,0.3-0.8c0.1-0.2,0.3-0.5,0.4-0.7c0.6-0.8,1.6-1.6,2.7-1.6c0.3,0,0.7,0.1,1,0.2
					c0.3,0.1,0.5,0.3,0.8,0.6c0.3,0.2,0.5,0.5,0.7,0.8c0.1,0.1,0.1,0.2,0.1,0.3c0,0,0,0.1,0.1,0.1c0,0,0.1,0.1,0.1,0.1
					c0,0.1,0.1,0.3,0.1,0.4c0,0,0,0.1,0,0.1C166.5,100.5,166.5,100.7,166.4,100.9z"/>
				<path class="st8" d="M170,100.5c-0.6,0.1-1.2,0.2-1.8,0.2c-0.5,0-1,0-1.5-0.1c0-0.1,0-0.2,0-0.2c-0.1-0.4-0.2-0.8-0.4-1.2
					c0,0,0,0,0,0c0,0,0,0,0-0.1c0-0.2,0.1-0.4,0.2-0.6c0.1-0.2,0.2-0.4,0.4-0.6c0.3-0.3,0.7-0.6,1.1-0.8c0.9-0.4,1.9-0.4,2.7,0.1
					c0.7,0.5,1.2,1.3,1.1,2.2C171.7,100.2,170.7,100.4,170,100.5z"/>
				<path class="st7" d="M171.8,98.2c-0.2-0.4-0.5-0.8-0.8-1.1c-0.2-0.1-0.3-0.2-0.5-0.3c0.1,0.2,0.1,0.5,0.1,0.8
					c-0.1,1.1-1.3,1.7-2.3,1.9c-0.5,0.1-1.1,0.1-1.6-0.3c-0.2-0.2-0.4-0.5-0.4-0.8c-0.1,0.2-0.1,0.3-0.1,0.5
					c-0.2-0.2-0.3-0.4-0.5-0.6c-0.3-0.3-0.6-0.5-0.9-0.6c0.6,0.5,1,1.1,1.1,1.9c0,0.4-0.1,0.7-0.4,0.9c-0.3,0.2-0.7,0.3-1,0.4
					c-0.9,0.2-1.8,0.3-2.6,0c-0.3-0.1-0.7-0.3-0.9-0.7c-0.1-0.3,0-0.6,0.1-0.9c0,0,0,0,0,0c-0.3,0.4-0.7,0.9-0.7,1.5
					c0,0.2,0,0.5,0.2,0.6c0.2,0.2,0.4,0.2,0.6,0.3c0.6,0.2,1.2,0.2,1.8,0.2c0.7,0,1.4,0,2.1-0.1c0.6-0.1,1.2-0.2,1.6-0.6
					c0.1-0.1,0.2-0.2,0.2-0.3c0.5,0.1,0.9,0.1,1.4,0.1c0.6,0,1.2-0.1,1.8-0.2c0.8-0.1,1.9-0.3,2.1-1.2
					C172.1,99.1,172,98.6,171.8,98.2z"/>
				<path class="st8" d="M161,100c0.8-1.2,2.1-2.2,3.5-2.3c-0.2-0.1-0.5-0.1-0.8-0.1c-1.1,0-2.1,0.8-2.7,1.6
					c-0.2,0.2-0.3,0.4-0.4,0.7c-0.1,0.2-0.3,0.5-0.3,0.8c0,0.1,0,0.2,0.1,0.3C160.6,100.6,160.8,100.3,161,100z"/>
				<path class="st8" d="M166.3,99.1c0,0,0,0.1,0.1,0.1c0.1-0.2,0.2-0.3,0.3-0.5c0.5-0.8,1.2-1.3,2-1.7c0.3-0.1,0.6-0.2,0.8-0.3
					c-0.5-0.1-1.1,0-1.6,0.3c-0.4,0.2-0.8,0.4-1.1,0.8c-0.1,0.2-0.3,0.4-0.4,0.6c-0.1,0.2-0.2,0.4-0.2,0.6
					C166.3,99,166.3,99,166.3,99.1C166.3,99.1,166.3,99.1,166.3,99.1z"/>
			</g>
		</g>
		<g>
			<path class="st6" d="M22,80.1c-0.9,0-1.8-0.2-2.8-0.3c-0.9-0.1-1.8-0.1-2.7-0.1c-0.5,0-0.9,0-1.4-0.1c-0.4,0-0.9-0.1-1.3-0.1
				c-0.5,0-0.9,0-1.4,0.1c-0.5,0-0.9,0-1.4,0c-1.1,0-2.1,0.1-3.1,0.2c-0.1,0-0.2,0.2,0,0.2c0.9-0.1,1.9-0.1,2.8,0
				c0.5,0,0.9,0.1,1.4,0.1c0.5,0,0.9-0.1,1.4-0.1c0.5,0,0.9,0.1,1.4,0.1c0.5,0,0.9,0,1.4,0c0.9,0,1.9,0,2.8,0c1,0.1,2,0.4,3,0.4
				C22.1,80.3,22.2,80.1,22,80.1z"/>
			<path class="st6" d="M29.9,78.4c-1,0-2.1-0.2-3.1-0.3c-1-0.1-2-0.3-3-0.3c-2.1,0-4.2,0.2-6.2,0.5c-0.1,0-0.2,0.2,0,0.2
				c2.1-0.2,4.1-0.2,6.2-0.3c1,0,2.1,0.1,3.1,0.2c1,0.1,2,0.3,3,0.2C30,78.5,30,78.4,29.9,78.4z"/>
			<path class="st6" d="M15,78c-1.5-0.1-3-0.3-4.6-0.3c-1.6,0-3.1,0.1-4.6,0.2c-0.1,0-0.2,0.2-0.1,0.2C7.2,78,8.8,78,10.3,78
				c1.5,0,3.1,0.2,4.6,0.1C15,78.1,15.1,78,15,78z"/>
			<g>
				<path class="st7" d="M23.2,76.1c-0.2-0.4-0.5-0.8-0.8-1.1c-0.4-0.3-0.9-0.5-1.4-0.6c-0.5-0.1-1,0-1.5,0.2
					c-0.5,0.2-1,0.5-1.4,0.9c-0.3,0.3-0.5,0.8-0.6,1.2c-0.2-0.2-0.3-0.4-0.5-0.6c-0.4-0.4-1-0.7-1.6-0.8c-1.2-0.1-2.3,0.7-3,1.6
					c-0.3,0.4-0.7,1-0.8,1.5c0,0.2,0,0.5,0.2,0.6c0.2,0.2,0.4,0.2,0.6,0.3c0.6,0.2,1.2,0.2,1.8,0.2c0.7,0,1.4,0,2.1-0.1
					c0.6-0.1,1.2-0.2,1.6-0.6c0.1-0.1,0.2-0.2,0.2-0.3c0.5,0.1,0.9,0.1,1.4,0.1c0.6,0,1.2-0.1,1.8-0.2c0.8-0.1,1.9-0.3,2.1-1.2
					C23.5,77.1,23.4,76.6,23.2,76.1z"/>
				<path class="st8" d="M17.8,78.9c-0.1,0.1-0.2,0.2-0.3,0.2c-0.3,0.2-0.8,0.3-1.1,0.3c-1.2,0.2-2.4,0.2-3.6,0
					c-0.4-0.1-1-0.2-1-0.7c0-0.3,0.1-0.6,0.3-0.8c0.1-0.2,0.3-0.5,0.4-0.7c0.6-0.8,1.6-1.6,2.7-1.6c0.3,0,0.7,0.1,1,0.2
					c0.3,0.1,0.5,0.3,0.8,0.6c0.3,0.2,0.5,0.5,0.7,0.8c0.1,0.1,0.1,0.2,0.1,0.3c0,0,0,0.1,0.1,0.1c0,0,0.1,0.1,0.1,0.1
					c0,0.1,0.1,0.3,0.1,0.4c0,0,0,0.1,0,0.1C17.9,78.5,17.9,78.7,17.8,78.9z"/>
				<path class="st8" d="M21.4,78.5c-0.6,0.1-1.2,0.2-1.8,0.2c-0.5,0-1,0-1.5-0.1c0-0.1,0-0.2,0-0.2c-0.1-0.4-0.2-0.8-0.4-1.2
					c0,0,0,0,0,0c0,0,0,0,0-0.1c0-0.2,0.1-0.4,0.2-0.6c0.1-0.2,0.2-0.4,0.4-0.6c0.3-0.3,0.7-0.6,1.1-0.8c0.9-0.4,1.9-0.4,2.7,0.1
					c0.7,0.5,1.2,1.3,1.1,2.2C23.1,78.1,22.1,78.4,21.4,78.5z"/>
				<path class="st7" d="M23.2,76.1c-0.2-0.4-0.5-0.8-0.8-1.1c-0.2-0.1-0.3-0.2-0.5-0.3C22,75,22,75.2,22,75.5
					c-0.1,1.1-1.3,1.7-2.3,1.9c-0.5,0.1-1.1,0.1-1.6-0.3c-0.2-0.2-0.4-0.5-0.4-0.8c-0.1,0.2-0.1,0.3-0.1,0.5
					c-0.2-0.2-0.3-0.4-0.5-0.6c-0.3-0.3-0.6-0.5-0.9-0.6c0.6,0.5,1,1.1,1.1,1.9c0,0.4-0.1,0.7-0.4,0.9c-0.3,0.2-0.7,0.3-1,0.4
					c-0.9,0.2-1.8,0.3-2.6,0c-0.3-0.1-0.7-0.3-0.9-0.7c-0.1-0.3,0-0.6,0.1-0.9c0,0,0,0,0,0c-0.3,0.4-0.7,0.9-0.7,1.5
					c0,0.2,0,0.5,0.2,0.6c0.2,0.2,0.4,0.2,0.6,0.3c0.6,0.2,1.2,0.2,1.8,0.2c0.7,0,1.4,0,2.1-0.1c0.6-0.1,1.2-0.2,1.6-0.6
					c0.1-0.1,0.2-0.2,0.2-0.3c0.5,0.1,0.9,0.1,1.4,0.1c0.6,0,1.2-0.1,1.8-0.2c0.8-0.1,1.9-0.3,2.1-1.2
					C23.5,77.1,23.4,76.6,23.2,76.1z"/>
				<path class="st8" d="M12.4,78c0.8-1.2,2.1-2.2,3.5-2.3c-0.2-0.1-0.5-0.1-0.8-0.1c-1.1,0-2.1,0.8-2.7,1.6
					c-0.2,0.2-0.3,0.4-0.4,0.7c-0.1,0.2-0.3,0.5-0.3,0.8c0,0.1,0,0.2,0.1,0.3C12,78.6,12.2,78.3,12.4,78z"/>
				<path class="st8" d="M17.8,77.1c0,0,0,0.1,0.1,0.1c0.1-0.2,0.2-0.3,0.3-0.5c0.5-0.8,1.2-1.3,2-1.7c0.3-0.1,0.6-0.2,0.8-0.3
					c-0.5-0.1-1.1,0-1.6,0.3c-0.4,0.2-0.8,0.4-1.1,0.8c-0.1,0.2-0.3,0.4-0.4,0.6c-0.1,0.2-0.2,0.4-0.2,0.6
					C17.7,77,17.7,77,17.8,77.1C17.7,77.1,17.7,77.1,17.8,77.1z"/>
			</g>
		</g>
		<g>
			<path class="st6" d="M137.5,80c-0.9,0-1.7-0.2-2.5-0.3c-0.8-0.1-1.6-0.1-2.5-0.1c-0.4,0-0.9,0-1.3-0.1c-0.4,0-0.8-0.1-1.2-0.1
				c-0.4,0-0.9,0-1.3,0.1c-0.4,0-0.9,0-1.3,0c-1,0-1.9,0.1-2.9,0.2c-0.1,0-0.2,0.2,0,0.2c0.8-0.1,1.7-0.1,2.6,0
				c0.4,0,0.8,0.1,1.3,0.1c0.4,0,0.9-0.1,1.3-0.1c0.4,0,0.9,0,1.3,0.1c0.4,0,0.8,0,1.3,0c0.9,0,1.7,0,2.6,0c0.9,0.1,1.9,0.4,2.8,0.3
				C137.5,80.2,137.6,80,137.5,80z"/>
			<path class="st6" d="M144.8,78.4c-1,0-1.9-0.1-2.9-0.3c-0.9-0.1-1.8-0.3-2.8-0.3c-1.9,0-3.9,0.2-5.8,0.4c-0.1,0-0.2,0.2,0,0.2
				c1.9-0.2,3.8-0.2,5.7-0.3c1,0,1.9,0,2.9,0.2c0.9,0.1,1.8,0.2,2.8,0.2C144.8,78.5,144.9,78.4,144.8,78.4z"/>
			<path class="st6" d="M130.9,78c-1.4-0.1-2.8-0.3-4.2-0.3c-1.4,0-2.9,0-4.3,0.2c-0.1,0-0.2,0.2-0.1,0.2c1.4-0.1,2.9-0.1,4.3-0.1
				c1.4,0,2.9,0.2,4.3,0.1C131,78.2,131,78.1,130.9,78z"/>
			<g>
				<path class="st7" d="M138.6,76.3c-0.2-0.4-0.4-0.8-0.8-1c-0.4-0.3-0.8-0.5-1.3-0.5c-0.5,0-0.9,0-1.4,0.2
					c-0.5,0.2-0.9,0.5-1.3,0.8c-0.3,0.3-0.5,0.7-0.5,1.1c-0.2-0.2-0.3-0.4-0.5-0.6c-0.4-0.4-0.9-0.7-1.5-0.7
					c-1.1-0.1-2.2,0.6-2.8,1.5c-0.3,0.4-0.7,0.9-0.7,1.4c0,0.2,0,0.4,0.2,0.6c0.1,0.1,0.3,0.2,0.5,0.3c0.5,0.2,1.1,0.2,1.7,0.2
					c0.6,0,1.3,0,1.9-0.1c0.5-0.1,1.1-0.1,1.5-0.5c0.1-0.1,0.1-0.2,0.2-0.3c0.4,0.1,0.9,0.1,1.3,0.1c0.6,0,1.1-0.1,1.7-0.1
					c0.7-0.1,1.8-0.3,2-1.1C138.9,77.2,138.7,76.7,138.6,76.3z"/>
				<path class="st8" d="M133.5,78.9c-0.1,0.1-0.2,0.2-0.3,0.2c-0.3,0.2-0.7,0.2-1.1,0.3c-1.1,0.1-2.2,0.2-3.3,0
					c-0.4-0.1-0.9-0.2-0.9-0.7c0-0.3,0.1-0.5,0.2-0.7c0.1-0.2,0.3-0.4,0.4-0.6c0.6-0.8,1.5-1.5,2.5-1.5c0.3,0,0.6,0.1,0.9,0.2
					c0.3,0.1,0.5,0.3,0.7,0.5c0.2,0.2,0.5,0.5,0.6,0.7c0.1,0.1,0.1,0.2,0.1,0.3c0,0,0,0.1,0.1,0.1c0,0,0,0.1,0.1,0.1
					c0,0.1,0.1,0.3,0.1,0.4c0,0,0,0.1,0,0.1C133.7,78.5,133.7,78.7,133.5,78.9z"/>
				<path class="st8" d="M136.9,78.5c-0.6,0.1-1.1,0.1-1.7,0.2c-0.5,0-0.9,0-1.4-0.1c0-0.1,0-0.1,0-0.2c-0.1-0.4-0.2-0.8-0.3-1.1
					c0,0,0,0,0,0c0,0,0,0,0-0.1c0-0.2,0.1-0.4,0.2-0.6c0.1-0.2,0.2-0.4,0.3-0.5c0.3-0.3,0.6-0.5,1-0.7c0.8-0.4,1.7-0.4,2.5,0.1
					c0.6,0.5,1.1,1.2,1.1,2C138.5,78.2,137.5,78.4,136.9,78.5z"/>
				<path class="st7" d="M138.6,76.3c-0.2-0.4-0.4-0.8-0.8-1c-0.1-0.1-0.3-0.2-0.4-0.3c0.1,0.2,0.1,0.5,0.1,0.7
					c-0.1,1-1.2,1.5-2.1,1.7c-0.5,0.1-1.1,0.1-1.4-0.3c-0.2-0.2-0.3-0.5-0.4-0.7c-0.1,0.2-0.1,0.3-0.1,0.5c-0.2-0.2-0.3-0.4-0.5-0.6
					c-0.3-0.3-0.5-0.5-0.9-0.6c0.5,0.4,1,1,1,1.7c0,0.3-0.1,0.6-0.4,0.9c-0.3,0.2-0.6,0.3-0.9,0.4c-0.8,0.2-1.7,0.3-2.4,0
					c-0.3-0.1-0.7-0.3-0.8-0.6c-0.1-0.3,0-0.6,0.1-0.8c0,0,0,0,0,0c-0.3,0.4-0.6,0.9-0.7,1.3c0,0.2,0,0.4,0.2,0.6
					c0.1,0.1,0.3,0.2,0.5,0.3c0.5,0.2,1.1,0.2,1.7,0.2c0.6,0,1.3,0,1.9-0.1c0.5-0.1,1.1-0.1,1.5-0.5c0.1-0.1,0.1-0.2,0.2-0.3
					c0.4,0.1,0.9,0.1,1.3,0.1c0.6,0,1.1-0.1,1.7-0.1c0.7-0.1,1.8-0.3,2-1.1C138.9,77.2,138.7,76.7,138.6,76.3z"/>
				<path class="st8" d="M128.5,78.1c0.8-1.1,1.9-2,3.3-2.1c-0.2-0.1-0.5-0.1-0.7-0.1c-1,0-1.9,0.7-2.5,1.5
					c-0.1,0.2-0.3,0.4-0.4,0.6c-0.1,0.2-0.2,0.5-0.2,0.7c0,0.1,0,0.2,0.1,0.2C128.2,78.6,128.3,78.3,128.5,78.1z"/>
				<path class="st8" d="M133.5,77.2c0,0,0,0.1,0.1,0.1c0.1-0.2,0.1-0.3,0.2-0.4c0.5-0.7,1.1-1.2,1.9-1.6c0.3-0.1,0.5-0.2,0.8-0.3
					c-0.5-0.1-1,0-1.5,0.3c-0.4,0.2-0.7,0.4-1,0.7c-0.1,0.2-0.2,0.3-0.3,0.5c-0.1,0.2-0.2,0.4-0.2,0.6
					C133.5,77.1,133.5,77.1,133.5,77.2C133.5,77.2,133.5,77.2,133.5,77.2z"/>
			</g>
		</g>
	</g>
	<g class="st0">
		<g>
			<path class="st9" d="M82.1,25c-0.6-0.4-1.5-0.8-2.2-0.7c-0.3-0.6-0.7-1.1-1.3-1.4c-0.7-0.4-1.5-0.4-2.3-0.3
				c-0.4-1.5-2.7-2.1-4-1.8C71,21.1,69.7,22,69,23.1c-0.1,0.1-0.2,0.3-0.3,0.5c-0.7-0.4-1.9-0.3-2.7-0.2c-0.8,0.2-1.4,0.5-1.9,1.2
				c-0.3,0.4-0.6,0.9-0.7,1.4c-0.5,0-0.9,0-1.3,0.2c-0.8,0.4-1.2,1.3-0.8,2.1c0.6,1.3,2.6,1.6,4,1c0.4,0.5,1,1,1.5,1.3
				c1.2,0.7,2.5,1.1,3.8,1.1c1.8,0.1,3.8-0.5,4.9-1.9c0.4,0.2,0.8,0.3,1.1,0.4c0.9,0.3,1.9,0.5,2.9,0.4c1.4-0.2,2.6-0.8,3.2-2.2
				C83.2,27.2,83.2,25.8,82.1,25z"/>
			<path class="st10" d="M82.9,26.1c0,0.2,0,0.4-0.1,0.7c-0.3,1.4-1.4,2.5-2.7,2.9c-0.7,0.2-1.3,0.3-2,0.2c-0.5,0-1.1-0.1-1.4-0.6
				c0,0,0-0.1,0-0.1c0.1,0,0.2-0.1,0.3-0.1c0.2-0.2,0.6-0.4,0.8-0.7C77.3,28.7,76.7,29,76,29c-0.7,0-1.4-0.2-2.1-0.3
				c0.2,0.3,0.5,0.5,0.8,0.7c0,0,0,0.1,0,0.1c-0.5,0.1-1,0.3-1.6,0.5c-0.5,0.2-1,0.3-1.5,0.4c-1.6,0.2-3.3-0.1-4.8-0.7
				c-0.6-0.3-1.2-0.6-1.7-1.1c-0.4-0.4-0.7-0.9-0.8-1.5c-0.1,0.2-0.1,0.5-0.1,0.7c0,0.3,0,0.7,0.3,0.9c0,0,0,0.1,0,0.1
				c-0.4,0.1-0.8,0.1-1.2,0c-0.7-0.2-1.3-0.7-1.6-1.3c-0.1-0.3-0.1-0.6,0-0.9c0,0,0,0,0,0c-0.5,0.5-0.7,1.2-0.4,1.9
				c0.6,1.3,2.6,1.6,4,1c0.4,0.5,1,1,1.5,1.3c1.2,0.7,2.5,1.1,3.8,1.1c1.8,0.1,3.8-0.5,4.9-1.9c0.4,0.2,0.8,0.3,1.1,0.4
				c0.9,0.3,1.9,0.5,2.9,0.4c1.4-0.2,2.6-0.8,3.2-2.2C83.1,27.7,83.2,26.8,82.9,26.1z"/>
		</g>
		<g>
			<path class="st9" d="M112.4,17.4c-0.4-0.3-1.1-0.6-1.6-0.5c-0.2-0.4-0.5-0.8-1-1c-0.5-0.3-1.1-0.3-1.7-0.2
				c-0.3-1.1-1.9-1.5-2.9-1.3c-0.9,0.2-1.8,0.8-2.3,1.6c-0.1,0.1-0.1,0.2-0.2,0.3c-0.5-0.3-1.4-0.2-1.9-0.1c-0.6,0.1-1,0.4-1.4,0.9
				c-0.2,0.3-0.4,0.7-0.5,1c-0.3,0-0.7,0-0.9,0.2c-0.6,0.3-0.8,1-0.6,1.5c0.4,0.9,1.9,1.1,2.9,0.7c0.3,0.4,0.7,0.7,1.1,0.9
				c0.8,0.5,1.8,0.8,2.8,0.8c1.3,0,2.7-0.4,3.5-1.4c0.3,0.1,0.6,0.2,0.8,0.3c0.7,0.2,1.4,0.3,2.1,0.3c1-0.1,1.9-0.6,2.3-1.6
				C113.2,19,113.2,17.9,112.4,17.4z"/>
			<path class="st10" d="M113,18.1c0,0.2,0,0.3,0,0.5c-0.2,1-1,1.8-2,2.1c-0.5,0.2-1,0.2-1.5,0.2c-0.3,0-0.8-0.1-1-0.4c0,0,0,0,0,0
				c0.1,0,0.2,0,0.2-0.1c0.2-0.1,0.4-0.3,0.6-0.5c-0.4,0.2-0.9,0.4-1.3,0.4c-0.5,0-1-0.1-1.5-0.2c0.1,0.2,0.3,0.4,0.6,0.5
				c0,0,0,0.1,0,0.1c-0.4,0.1-0.8,0.2-1.1,0.4c-0.4,0.1-0.7,0.2-1.1,0.3c-1.2,0.2-2.4,0-3.5-0.5c-0.4-0.2-0.9-0.4-1.2-0.8
				c-0.3-0.3-0.5-0.7-0.6-1.1c0,0.2-0.1,0.3-0.1,0.5c0,0.2,0,0.5,0.2,0.7c0,0,0,0,0,0.1c-0.3,0.1-0.6,0.1-0.9,0
				c-0.5-0.1-1-0.5-1.1-1c-0.1-0.2-0.1-0.4,0-0.6c0,0,0,0,0,0c-0.4,0.3-0.5,0.9-0.3,1.3c0.4,0.9,1.9,1.1,2.9,0.7
				c0.3,0.4,0.7,0.7,1.1,0.9c0.8,0.5,1.8,0.8,2.8,0.8c1.3,0,2.7-0.4,3.5-1.4c0.3,0.1,0.6,0.2,0.8,0.3c0.7,0.2,1.4,0.3,2.1,0.3
				c1-0.1,1.9-0.6,2.3-1.6C113.1,19.3,113.1,18.7,113,18.1z"/>
		</g>
	</g>
</g>
<g>
	<defs>
		
			<rect id="SVGID_3_" x="180" y="0" transform="matrix(-1 -4.490909e-11 4.490909e-11 -1 540 123.8476)" width="180" height="123.8"/>
	</defs>
	<clipPath id="SVGID_4_">
		<use xlink:href="#SVGID_3_"  style="overflow:visible;"/>
	</clipPath>
	<g class="st11">
		<rect x="180" y="0" transform="matrix(-1 -4.490909e-11 4.490909e-11 -1 540 123.8476)" class="st1" width="180" height="123.8"/>
		<path class="st2" d="M194.3,78c3.2,0.1,6.5,0.2,9.7,0.1c3-0.1,5.9-0.6,8.9-1c3-0.4,5.9-0.7,8.9-0.5c3.2,0.2,6.4,0.5,9.6,0.8
			c6.4,0.5,12.7,1.1,19.1,1.4c12.6,0.7,25.3,1.2,38,0.2c6.3-0.5,12.5-1,18.8-0.9c6.2,0.1,12.5,0.2,18.7,0c11.3-0.3,22.7-2.3,34-1.1
			v46.8H180v-46C184.8,77.8,189.6,77.9,194.3,78z"/>
		<path class="st3" d="M187.1,113.8c14.7,0.2,29.2,2.4,43.8,2.9c7.2,0.2,14.4,0.2,21.5-0.3c7.3-0.5,14.5-1.3,21.8-1.4
			c7.3-0.1,14.6,0.3,21.9,0.6c7.4,0.3,14.8,0.4,22.2,0.4c13.9-0.1,27.8-0.9,41.6-2.3v10.2H180v-10
			C182.4,113.8,184.7,113.7,187.1,113.8z"/>
		<path class="st3" d="M230.7,99.9c2.8,0.2,5.7,0.4,8.5,0.7c2.6,0.3,5.2,0.6,7.8,0.9c4.5,0.5,9.1,0.9,13.4,2.3
			c-0.4,0-0.9,0.1-1.3,0.1c-5.7,0.5-11.4-0.3-17.1-0.6c-2.9-0.2-5.8-0.2-8.7-0.2c-3.1-0.1-6.2-0.1-9.4-0.2c-3.1,0-6.2-0.1-9.4-0.1
			c-3.1,0-6.3-0.1-9.4,0c-6.2,0.2-12.4,1-18.6,1.2c-2.2,0.1-4.4,0.1-6.6,0v-5c5.8,0,11.5,0,17.3,0C208.4,99.1,219.6,99.3,230.7,99.9
			z"/>
		<path class="st4" d="M295.8,111.5c-0.2,0-0.5,0-0.7,0c-6.3,0.4-12.5,0.9-18.8,1.6c-6,0.6-12.1,1.4-18.1,1.7
			c-11.6,0.7-23.3,0.4-34.7-2.2c6.7-0.1,13.5,0,20.2,0c6.5,0,13.1,0,19.6-0.1c6.5-0.1,13-0.7,19.4-1
			C287.1,111.3,291.5,111.4,295.8,111.5z"/>
		<path class="st3" d="M337.8,109.5c-3-0.3-6.1-0.5-9.1-0.6c-3-0.1-6.1-0.1-9.1-0.1c-3-0.1-6-0.1-9.1-0.2c-3-0.1-6-0.3-9-0.4
			c-5.5-0.2-11.1,0.1-16.6-0.7c5.1-1.2,10.5-0.4,15.7-0.5c5.6,0,11.1-0.6,16.6-1.1c5.6-0.5,11.2-0.8,16.8-0.8
			c8.6-0.1,17.3,0.1,25.9,0.3v6.2c-1.4-0.1-2.8-0.1-4.2-0.2C349.8,110.9,343.8,110.1,337.8,109.5z"/>
		<path class="st5" d="M349.9,86.3c-4.5-0.1-9,0.1-13.5,0.4c-4.5,0.3-8.9,0.9-13.4,1.1c-9,0.3-17.9-0.3-26.9,0.8
			c-0.2,0-0.3,0.3-0.1,0.4c3.4,1.1,6.9,1.9,10.4,2.4c12.5,2,25.6,1.5,37.3,6.6c-1.8,0.4-3.8,0.2-5.7,0c-2.1-0.3-4.2-0.6-6.3-0.7
			c-5.7-0.2-11.4-0.3-17.2-0.4c-10.2-0.2-20.4,0-30.6,0.3c-10.3,0.3-20.6,0.1-30.9-0.5c-10.2-0.7-20.4-1.6-30.6-1.5
			c-5.1,0-10.3,0.4-15.4,0.5c-4.7,0-9.5,0-14.2,0c2.8-0.9,5.7-1.1,8.5-1.5c13.4-1.9,26.7-4.3,40.1-6.5c0.2,0,0.2-0.4-0.1-0.4
			c-5.6,0.5-11.2-0.5-16.8-0.7c-10-0.4-20,0-30-0.4c-4.9-0.2-9.9-0.4-14.9-0.4v-7.9c4.8-0.1,9.6,0,14.3,0.1c3.2,0.1,6.5,0.2,9.7,0.1
			c3-0.1,5.9-0.6,8.9-1c3-0.4,5.9-0.7,8.9-0.5c3.2,0.2,6.4,0.5,9.6,0.8c6.4,0.5,12.7,1.1,19.1,1.4c12.6,0.7,25.3,1.2,38,0.2
			c6.3-0.5,12.5-1,18.8-0.9c6.2,0.1,12.5,0.2,18.7,0c11.3-0.3,22.7-2.3,34-1.1v9.6C356.6,86.5,353.3,86.3,349.9,86.3z"/>
		<path class="st3" d="M258.4,93.1c4.3-0.3,8.6-0.8,12.9-1c4.4-0.1,8.8,0.1,13.1,0.4c0.5,0,1,0.1,1.4,0.1c-2.5,0.2-4.9,0.5-7.3,0.8
			c-3.7,0.5-7.5,1-11.2,1.4c-7.2,0.8-14.7,1.1-21.8-0.9c0.2,0,0.4-0.1,0.6-0.1C250.2,93.2,254.3,93.4,258.4,93.1z"/>
		<path class="st5" d="M232.4,83.8c-2.2-0.3-4.5-0.7-6.7-1c4.6,0,9.2,0.1,13.7,0.5c5.6,0.4,11.2,1.1,16.7,2.4
			c-2.5,0.3-5.1,0.2-7.6,0c-2.7-0.2-5.3-0.6-8-0.9C237.9,84.4,235.2,84.2,232.4,83.8z"/>
		<path class="st5" d="M283,85c2.9-0.4,5.8-0.8,8.7-1c5.8-0.5,11.6-0.7,17.4-0.7c0.7,0,1.5,0,2.2,0c0,0,0,0,0,0
			c-1.6,0.2-3.1,0.5-4.7,0.8c-2.7,0.5-5.5,1.1-8.2,1.4c-2.7,0.3-5.5,0.5-8.3,0.4C287.7,85.8,285.3,85.6,283,85z"/>
		<path class="st4" d="M359.9,80.4c-12.5,1.3-25.2,2-37.8,1.8c-6.3-0.1-12.6-0.6-19-0.7c-6.4-0.1-12.7,0-19.1,0.2
			c-6.4,0.2-12.9,0.5-19.3,0.5c-6.4,0.1-12.8-0.2-19.2-0.6c-6.4-0.5-12.9-1.1-19.4-1.4c-6.4-0.3-12.8-0.1-19.2,0.1
			c-6.5,0.2-13,0.5-19.4,1.1c-2.5,0.2-5,0.5-7.6,0.5v-4c4.8-0.1,9.6,0,14.3,0.1c3.2,0.1,6.5,0.2,9.7,0.1c3-0.1,5.9-0.6,8.9-1
			c3-0.4,5.9-0.7,8.9-0.5c3.2,0.2,6.4,0.5,9.6,0.8c6.4,0.5,12.7,1.1,19.1,1.4c12.6,0.7,25.3,1.2,38,0.2c6.3-0.5,12.5-1,18.8-0.9
			c6.2,0.1,12.5,0.2,18.7,0c11.3-0.3,22.7-2.3,34-1.1v3.3C360,80.4,359.9,80.4,359.9,80.4z"/>
		<g>
			<path class="st6" d="M189.4,102.2c0.9,0,1.8-0.2,2.8-0.3c0.9-0.1,1.8-0.1,2.7-0.1c0.5,0,0.9,0,1.4-0.1c0.4,0,0.9-0.1,1.3-0.1
				c0.5,0,0.9,0,1.4,0.1c0.5,0,0.9,0,1.4,0c1.1,0,2.1,0.1,3.1,0.2c0.1,0,0.2,0.2,0,0.2c-0.9-0.1-1.9-0.1-2.8,0
				c-0.5,0-0.9,0.1-1.4,0.1c-0.5,0-0.9-0.1-1.4-0.1c-0.5,0-0.9,0.1-1.4,0.1c-0.5,0-0.9,0-1.4,0c-0.9,0-1.9,0-2.8,0
				c-1,0.1-2,0.4-3,0.4C189.3,102.3,189.2,102.2,189.4,102.2z"/>
			<path class="st6" d="M181.5,100.4c1,0,2.1-0.2,3.1-0.3c1-0.1,2-0.3,3-0.3c2.1,0,4.2,0.2,6.2,0.5c0.1,0,0.2,0.2,0,0.2
				c-2.1-0.2-4.1-0.2-6.2-0.3c-1,0-2.1,0.1-3.1,0.2c-1,0.1-2,0.3-3,0.2C181.4,100.5,181.4,100.4,181.5,100.4z"/>
			<path class="st6" d="M196.4,100c1.5-0.1,3-0.3,4.6-0.3c1.6,0,3.1,0.1,4.6,0.2c0.1,0,0.2,0.2,0.1,0.2c-1.5-0.1-3.1-0.1-4.6-0.1
				c-1.5,0-3.1,0.2-4.6,0.1C196.4,100.1,196.4,100,196.4,100z"/>
			<g>
				<path class="st7" d="M188.2,98.2c0.2-0.4,0.5-0.8,0.8-1.1c0.4-0.3,0.9-0.5,1.4-0.6c0.5-0.1,1,0,1.5,0.2c0.5,0.2,1,0.5,1.4,0.9
					c0.3,0.3,0.5,0.8,0.6,1.2c0.2-0.2,0.3-0.4,0.5-0.6c0.4-0.4,1-0.7,1.6-0.8c1.2-0.1,2.3,0.7,3,1.6c0.3,0.4,0.7,1,0.8,1.5
					c0,0.2,0,0.5-0.2,0.6c-0.2,0.2-0.4,0.2-0.6,0.3c-0.6,0.2-1.2,0.2-1.8,0.2c-0.7,0-1.4,0-2.1-0.1c-0.6-0.1-1.2-0.2-1.6-0.6
					c-0.1-0.1-0.2-0.2-0.2-0.3c-0.5,0.1-0.9,0.1-1.4,0.1c-0.6,0-1.2-0.1-1.8-0.2c-0.8-0.1-1.9-0.3-2.1-1.2
					C187.9,99.1,188,98.6,188.2,98.2z"/>
				<path class="st8" d="M193.6,100.9c0.1,0.1,0.2,0.2,0.3,0.2c0.3,0.2,0.8,0.3,1.1,0.3c1.2,0.2,2.4,0.2,3.6,0c0.4-0.1,1-0.2,1-0.7
					c0-0.3-0.1-0.6-0.3-0.8c-0.1-0.2-0.3-0.5-0.4-0.7c-0.6-0.8-1.6-1.6-2.7-1.6c-0.3,0-0.7,0.1-1,0.2c-0.3,0.1-0.5,0.3-0.8,0.6
					c-0.3,0.2-0.5,0.5-0.7,0.8c-0.1,0.1-0.1,0.2-0.1,0.3c0,0,0,0.1-0.1,0.1c0,0-0.1,0.1-0.1,0.1c0,0.1-0.1,0.3-0.1,0.4
					c0,0,0,0.1,0,0.1C193.5,100.5,193.5,100.7,193.6,100.9z"/>
				<path class="st8" d="M190,100.5c0.6,0.1,1.2,0.2,1.8,0.2c0.5,0,1,0,1.5-0.1c0-0.1,0-0.2,0-0.2c0.1-0.4,0.2-0.8,0.4-1.2
					c0,0,0,0,0,0c0,0,0,0,0-0.1c0-0.2-0.1-0.4-0.2-0.6c-0.1-0.2-0.2-0.4-0.4-0.6c-0.3-0.3-0.7-0.6-1.1-0.8c-0.9-0.4-1.9-0.4-2.7,0.1
					c-0.7,0.5-1.2,1.3-1.1,2.2C188.3,100.2,189.3,100.4,190,100.5z"/>
				<path class="st7" d="M188.2,98.2c0.2-0.4,0.5-0.8,0.8-1.1c0.2-0.1,0.3-0.2,0.5-0.3c-0.1,0.2-0.1,0.5-0.1,0.8
					c0.1,1.1,1.3,1.7,2.3,1.9c0.5,0.1,1.1,0.1,1.6-0.3c0.2-0.2,0.4-0.5,0.4-0.8c0.1,0.2,0.1,0.3,0.1,0.5c0.2-0.2,0.3-0.4,0.5-0.6
					c0.3-0.3,0.6-0.5,0.9-0.6c-0.6,0.5-1,1.1-1.1,1.9c0,0.4,0.1,0.7,0.4,0.9c0.3,0.2,0.7,0.3,1,0.4c0.9,0.2,1.8,0.3,2.6,0
					c0.3-0.1,0.7-0.3,0.9-0.7c0.1-0.3,0-0.6-0.1-0.9c0,0,0,0,0,0c0.3,0.4,0.7,0.9,0.7,1.5c0,0.2,0,0.5-0.2,0.6
					c-0.2,0.2-0.4,0.2-0.6,0.3c-0.6,0.2-1.2,0.2-1.8,0.2c-0.7,0-1.4,0-2.1-0.1c-0.6-0.1-1.2-0.2-1.6-0.6c-0.1-0.1-0.2-0.2-0.2-0.3
					c-0.5,0.1-0.9,0.1-1.4,0.1c-0.6,0-1.2-0.1-1.8-0.2c-0.8-0.1-1.9-0.3-2.1-1.2C187.9,99.1,188,98.6,188.2,98.2z"/>
				<path class="st8" d="M199,100c-0.8-1.2-2.1-2.2-3.5-2.3c0.2-0.1,0.5-0.1,0.8-0.1c1.1,0,2.1,0.8,2.7,1.6c0.2,0.2,0.3,0.4,0.4,0.7
					c0.1,0.2,0.3,0.5,0.3,0.8c0,0.1,0,0.2-0.1,0.3C199.4,100.6,199.2,100.3,199,100z"/>
				<path class="st8" d="M193.7,99.1c0,0,0,0.1-0.1,0.1c-0.1-0.2-0.2-0.3-0.3-0.5c-0.5-0.8-1.2-1.3-2-1.7c-0.3-0.1-0.6-0.2-0.8-0.3
					c0.5-0.1,1.1,0,1.6,0.3c0.4,0.2,0.8,0.4,1.1,0.8c0.1,0.2,0.3,0.4,0.4,0.6c0.1,0.2,0.2,0.4,0.2,0.6C193.7,99,193.7,99,193.7,99.1
					C193.7,99.1,193.7,99.1,193.7,99.1z"/>
			</g>
		</g>
		<g>
			<path class="st6" d="M338,80.1c0.9,0,1.8-0.2,2.8-0.3c0.9-0.1,1.8-0.1,2.7-0.1c0.5,0,0.9,0,1.4-0.1c0.4,0,0.9-0.1,1.3-0.1
				c0.5,0,0.9,0,1.4,0.1c0.5,0,0.9,0,1.4,0c1.1,0,2.1,0.1,3.1,0.2c0.1,0,0.2,0.2,0,0.2c-0.9-0.1-1.9-0.1-2.8,0
				c-0.5,0-0.9,0.1-1.4,0.1c-0.5,0-0.9-0.1-1.4-0.1c-0.5,0-0.9,0.1-1.4,0.1c-0.5,0-0.9,0-1.4,0c-0.9,0-1.9,0-2.8,0
				c-1,0.1-2,0.4-3,0.4C337.9,80.3,337.8,80.1,338,80.1z"/>
			<path class="st6" d="M330.1,78.4c1,0,2.1-0.2,3.1-0.3c1-0.1,2-0.3,3-0.3c2.1,0,4.2,0.2,6.2,0.5c0.1,0,0.2,0.2,0,0.2
				c-2.1-0.2-4.1-0.2-6.2-0.3c-1,0-2.1,0.1-3.1,0.2c-1,0.1-2,0.3-3,0.2C330,78.5,330,78.4,330.1,78.4z"/>
			<path class="st6" d="M345,78c1.5-0.1,3-0.3,4.6-0.3c1.6,0,3.1,0.1,4.6,0.2c0.1,0,0.2,0.2,0.1,0.2c-1.5-0.1-3.1-0.1-4.6-0.1
				c-1.5,0-3.1,0.2-4.6,0.1C345,78.1,344.9,78,345,78z"/>
			<g>
				<path class="st7" d="M336.8,76.1c0.2-0.4,0.5-0.8,0.8-1.1c0.4-0.3,0.9-0.5,1.4-0.6c0.5-0.1,1,0,1.5,0.2c0.5,0.2,1,0.5,1.4,0.9
					c0.3,0.3,0.5,0.8,0.6,1.2c0.2-0.2,0.3-0.4,0.5-0.6c0.4-0.4,1-0.7,1.6-0.8c1.2-0.1,2.3,0.7,3,1.6c0.3,0.4,0.7,1,0.8,1.5
					c0,0.2,0,0.5-0.2,0.6c-0.2,0.2-0.4,0.2-0.6,0.3c-0.6,0.2-1.2,0.2-1.8,0.2c-0.7,0-1.4,0-2.1-0.1c-0.6-0.1-1.2-0.2-1.6-0.6
					c-0.1-0.1-0.2-0.2-0.2-0.3c-0.5,0.1-0.9,0.1-1.4,0.1c-0.6,0-1.2-0.1-1.8-0.2c-0.8-0.1-1.9-0.3-2.1-1.2
					C336.5,77.1,336.6,76.6,336.8,76.1z"/>
				<path class="st8" d="M342.2,78.9c0.1,0.1,0.2,0.2,0.3,0.2c0.3,0.2,0.8,0.3,1.1,0.3c1.2,0.2,2.4,0.2,3.6,0c0.4-0.1,1-0.2,1-0.7
					c0-0.3-0.1-0.6-0.3-0.8c-0.1-0.2-0.3-0.5-0.4-0.7c-0.6-0.8-1.6-1.6-2.7-1.6c-0.3,0-0.7,0.1-1,0.2c-0.3,0.1-0.5,0.3-0.8,0.6
					c-0.3,0.2-0.5,0.5-0.7,0.8c-0.1,0.1-0.1,0.2-0.1,0.3c0,0,0,0.1-0.1,0.1c0,0-0.1,0.1-0.1,0.1c0,0.1-0.1,0.3-0.1,0.4
					c0,0,0,0.1,0,0.1C342.1,78.5,342.1,78.7,342.2,78.9z"/>
				<path class="st8" d="M338.6,78.5c0.6,0.1,1.2,0.2,1.8,0.2c0.5,0,1,0,1.5-0.1c0-0.1,0-0.2,0-0.2c0.1-0.4,0.2-0.8,0.4-1.2
					c0,0,0,0,0,0c0,0,0,0,0-0.1c0-0.2-0.1-0.4-0.2-0.6c-0.1-0.2-0.2-0.4-0.4-0.6c-0.3-0.3-0.7-0.6-1.1-0.8c-0.9-0.4-1.9-0.4-2.7,0.1
					c-0.7,0.5-1.2,1.3-1.1,2.2C336.9,78.1,337.9,78.4,338.6,78.5z"/>
				<path class="st7" d="M336.8,76.1c0.2-0.4,0.5-0.8,0.8-1.1c0.2-0.1,0.3-0.2,0.5-0.3c-0.1,0.2-0.1,0.5-0.1,0.8
					c0.1,1.1,1.3,1.7,2.3,1.9c0.5,0.1,1.1,0.1,1.6-0.3c0.2-0.2,0.4-0.5,0.4-0.8c0.1,0.2,0.1,0.3,0.1,0.5c0.2-0.2,0.3-0.4,0.5-0.6
					c0.3-0.3,0.6-0.5,0.9-0.6c-0.6,0.5-1,1.1-1.1,1.9c0,0.4,0.1,0.7,0.4,0.9c0.3,0.2,0.7,0.3,1,0.4c0.9,0.2,1.8,0.3,2.6,0
					c0.3-0.1,0.7-0.3,0.9-0.7c0.1-0.3,0-0.6-0.1-0.9c0,0,0,0,0,0c0.3,0.4,0.7,0.9,0.7,1.5c0,0.2,0,0.5-0.2,0.6
					c-0.2,0.2-0.4,0.2-0.6,0.3c-0.6,0.2-1.2,0.2-1.8,0.2c-0.7,0-1.4,0-2.1-0.1c-0.6-0.1-1.2-0.2-1.6-0.6c-0.1-0.1-0.2-0.2-0.2-0.3
					c-0.5,0.1-0.9,0.1-1.4,0.1c-0.6,0-1.2-0.1-1.8-0.2c-0.8-0.1-1.9-0.3-2.1-1.2C336.5,77.1,336.6,76.6,336.8,76.1z"/>
				<path class="st8" d="M347.6,78c-0.8-1.2-2.1-2.2-3.5-2.3c0.2-0.1,0.5-0.1,0.8-0.1c1.1,0,2.1,0.8,2.7,1.6
					c0.2,0.2,0.3,0.4,0.4,0.7c0.1,0.2,0.3,0.5,0.3,0.8c0,0.1,0,0.2-0.1,0.3C348,78.6,347.8,78.3,347.6,78z"/>
				<path class="st8" d="M342.2,77.1c0,0,0,0.1-0.1,0.1c-0.1-0.2-0.2-0.3-0.3-0.5c-0.5-0.8-1.2-1.3-2-1.7c-0.3-0.1-0.6-0.2-0.8-0.3
					c0.5-0.1,1.1,0,1.6,0.3c0.4,0.2,0.8,0.4,1.1,0.8c0.1,0.2,0.3,0.4,0.4,0.6c0.1,0.2,0.2,0.4,0.2,0.6C342.3,77,342.3,77,342.2,77.1
					C342.3,77.1,342.3,77.1,342.2,77.1z"/>
			</g>
		</g>
		<g>
			<path class="st6" d="M222.5,80c0.9,0,1.7-0.2,2.5-0.3c0.8-0.1,1.6-0.1,2.5-0.1c0.4,0,0.9,0,1.3-0.1c0.4,0,0.8-0.1,1.2-0.1
				c0.4,0,0.9,0,1.3,0.1c0.4,0,0.9,0,1.3,0c1,0,1.9,0.1,2.9,0.2c0.1,0,0.2,0.2,0,0.2c-0.8-0.1-1.7-0.1-2.6,0c-0.4,0-0.8,0.1-1.3,0.1
				c-0.4,0-0.9-0.1-1.3-0.1c-0.4,0-0.9,0-1.3,0.1c-0.4,0-0.8,0-1.3,0c-0.9,0-1.7,0-2.6,0c-0.9,0.1-1.9,0.4-2.8,0.3
				C222.5,80.2,222.4,80,222.5,80z"/>
			<path class="st6" d="M215.2,78.4c1,0,1.9-0.1,2.9-0.3c0.9-0.1,1.8-0.3,2.8-0.3c1.9,0,3.9,0.2,5.8,0.4c0.1,0,0.2,0.2,0,0.2
				c-1.9-0.2-3.8-0.2-5.7-0.3c-1,0-1.9,0-2.9,0.2c-0.9,0.1-1.8,0.2-2.8,0.2C215.2,78.5,215.1,78.4,215.2,78.4z"/>
			<path class="st6" d="M229.1,78c1.4-0.1,2.8-0.3,4.2-0.3c1.4,0,2.9,0,4.3,0.2c0.1,0,0.2,0.2,0.1,0.2c-1.4-0.1-2.9-0.1-4.3-0.1
				c-1.4,0-2.9,0.2-4.3,0.1C229,78.2,229,78.1,229.1,78z"/>
			<g>
				<path class="st7" d="M221.4,76.3c0.2-0.4,0.4-0.8,0.8-1c0.4-0.3,0.8-0.5,1.3-0.5c0.5,0,0.9,0,1.4,0.2c0.5,0.2,0.9,0.5,1.3,0.8
					c0.3,0.3,0.5,0.7,0.5,1.1c0.2-0.2,0.3-0.4,0.5-0.6c0.4-0.4,0.9-0.7,1.5-0.7c1.1-0.1,2.2,0.6,2.8,1.5c0.3,0.4,0.7,0.9,0.7,1.4
					c0,0.2,0,0.4-0.2,0.6c-0.1,0.1-0.3,0.2-0.5,0.3c-0.5,0.2-1.1,0.2-1.7,0.2c-0.6,0-1.3,0-1.9-0.1c-0.5-0.1-1.1-0.1-1.5-0.5
					c-0.1-0.1-0.1-0.2-0.2-0.3c-0.4,0.1-0.9,0.1-1.3,0.1c-0.6,0-1.1-0.1-1.7-0.1c-0.7-0.1-1.8-0.3-2-1.1
					C221.1,77.2,221.3,76.7,221.4,76.3z"/>
				<path class="st8" d="M226.5,78.9c0.1,0.1,0.2,0.2,0.3,0.2c0.3,0.2,0.7,0.2,1.1,0.3c1.1,0.1,2.2,0.2,3.3,0
					c0.4-0.1,0.9-0.2,0.9-0.7c0-0.3-0.1-0.5-0.2-0.7c-0.1-0.2-0.3-0.4-0.4-0.6c-0.6-0.8-1.5-1.5-2.5-1.5c-0.3,0-0.6,0.1-0.9,0.2
					c-0.3,0.1-0.5,0.3-0.7,0.5c-0.2,0.2-0.5,0.5-0.6,0.7c-0.1,0.1-0.1,0.2-0.1,0.3c0,0,0,0.1-0.1,0.1c0,0,0,0.1-0.1,0.1
					c0,0.1-0.1,0.3-0.1,0.4c0,0,0,0.1,0,0.1C226.3,78.5,226.3,78.7,226.5,78.9z"/>
				<path class="st8" d="M223.1,78.5c0.6,0.1,1.1,0.1,1.7,0.2c0.5,0,0.9,0,1.4-0.1c0-0.1,0-0.1,0-0.2c0.1-0.4,0.2-0.8,0.3-1.1
					c0,0,0,0,0,0c0,0,0,0,0-0.1c0-0.2-0.1-0.4-0.2-0.6c-0.1-0.2-0.2-0.4-0.3-0.5c-0.3-0.3-0.6-0.5-1-0.7c-0.8-0.4-1.7-0.4-2.5,0.1
					c-0.6,0.5-1.1,1.2-1.1,2C221.5,78.2,222.5,78.4,223.1,78.5z"/>
				<path class="st7" d="M221.4,76.3c0.2-0.4,0.4-0.8,0.8-1c0.1-0.1,0.3-0.2,0.4-0.3c-0.1,0.2-0.1,0.5-0.1,0.7
					c0.1,1,1.2,1.5,2.1,1.7c0.5,0.1,1.1,0.1,1.4-0.3c0.2-0.2,0.3-0.5,0.4-0.7c0.1,0.2,0.1,0.3,0.1,0.5c0.2-0.2,0.3-0.4,0.5-0.6
					c0.3-0.3,0.5-0.5,0.9-0.6c-0.5,0.4-1,1-1,1.7c0,0.3,0.1,0.6,0.4,0.9c0.3,0.2,0.6,0.3,0.9,0.4c0.8,0.2,1.7,0.3,2.4,0
					c0.3-0.1,0.7-0.3,0.8-0.6c0.1-0.3,0-0.6-0.1-0.8c0,0,0,0,0,0c0.3,0.4,0.6,0.9,0.7,1.3c0,0.2,0,0.4-0.2,0.6
					c-0.1,0.1-0.3,0.2-0.5,0.3c-0.5,0.2-1.1,0.2-1.7,0.2c-0.6,0-1.3,0-1.9-0.1c-0.5-0.1-1.1-0.1-1.5-0.5c-0.1-0.1-0.1-0.2-0.2-0.3
					c-0.4,0.1-0.9,0.1-1.3,0.1c-0.6,0-1.1-0.1-1.7-0.1c-0.7-0.1-1.8-0.3-2-1.1C221.1,77.2,221.3,76.7,221.4,76.3z"/>
				<path class="st8" d="M231.5,78.1c-0.8-1.1-1.9-2-3.3-2.1c0.2-0.1,0.5-0.1,0.7-0.1c1,0,1.9,0.7,2.5,1.5c0.1,0.2,0.3,0.4,0.4,0.6
					c0.1,0.2,0.2,0.5,0.2,0.7c0,0.1,0,0.2-0.1,0.2C231.8,78.6,231.7,78.3,231.5,78.1z"/>
				<path class="st8" d="M226.5,77.2c0,0,0,0.1-0.1,0.1c-0.1-0.2-0.1-0.3-0.2-0.4c-0.5-0.7-1.1-1.2-1.9-1.6
					c-0.3-0.1-0.5-0.2-0.8-0.3c0.5-0.1,1,0,1.5,0.3c0.4,0.2,0.7,0.4,1,0.7c0.1,0.2,0.2,0.3,0.3,0.5c0.1,0.2,0.2,0.4,0.2,0.6
					C226.5,77.1,226.5,77.1,226.5,77.2C226.5,77.2,226.5,77.2,226.5,77.2z"/>
			</g>
		</g>
	</g>
	<g class="st11">
		<g>
			<path class="st9" d="M247.2,19.8c0.4,1,1.3,1.5,2.3,1.6c0.7,0.1,1.4-0.1,2.1-0.3c0.2-0.1,0.5-0.1,0.8-0.3c0.8,1,2.2,1.4,3.5,1.4
				c1,0,1.9-0.3,2.8-0.8c0.3-0.2,0.8-0.5,1.1-0.9c1,0.4,2.4,0.2,2.9-0.7c0.3-0.6,0-1.2-0.6-1.5c-0.3-0.1-0.6-0.2-0.9-0.2
				c-0.1-0.4-0.3-0.7-0.5-1c-0.4-0.5-0.8-0.7-1.4-0.9c-0.5-0.1-1.4-0.2-1.9,0.1c-0.1-0.1-0.1-0.2-0.2-0.3c-0.5-0.8-1.4-1.4-2.3-1.6
				c-1-0.2-2.6,0.2-2.9,1.3c-0.6-0.1-1.2-0.1-1.7,0.2c-0.4,0.2-0.8,0.6-1,1c-0.5-0.1-1.1,0.2-1.6,0.5
				C246.8,17.9,246.8,19,247.2,19.8z"/>
			<path class="st10" d="M247,18.1c0,0.2,0,0.3,0,0.5c0.2,1,1,1.8,2,2.1c0.5,0.2,1,0.2,1.5,0.2c0.3,0,0.8-0.1,1-0.4c0,0,0,0,0,0
				c-0.1,0-0.2,0-0.2-0.1c-0.2-0.1-0.4-0.3-0.6-0.5c0.4,0.2,0.9,0.4,1.3,0.4c0.5,0,1-0.1,1.5-0.2c-0.1,0.2-0.3,0.4-0.6,0.5
				c0,0,0,0.1,0,0.1c0.4,0.1,0.8,0.2,1.1,0.4c0.4,0.1,0.7,0.2,1.1,0.3c1.2,0.2,2.4,0,3.5-0.5c0.4-0.2,0.9-0.4,1.2-0.8
				c0.3-0.3,0.5-0.7,0.6-1.1c0,0.2,0.1,0.3,0.1,0.5c0,0.2,0,0.5-0.2,0.7c0,0,0,0,0,0.1c0.3,0.1,0.6,0.1,0.9,0c0.5-0.1,1-0.5,1.1-1
				c0.1-0.2,0.1-0.4,0-0.6c0,0,0,0,0,0c0.4,0.3,0.5,0.9,0.3,1.3c-0.4,0.9-1.9,1.1-2.9,0.7c-0.3,0.4-0.7,0.7-1.1,0.9
				c-0.8,0.5-1.8,0.8-2.8,0.8c-1.3,0-2.7-0.4-3.5-1.4c-0.3,0.1-0.6,0.2-0.8,0.3c-0.7,0.2-1.4,0.3-2.1,0.3c-1-0.1-1.9-0.6-2.3-1.6
				C246.9,19.3,246.9,18.7,247,18.1z"/>
		</g>
	</g>
</g>
</svg>
