<?xml version="1.0" encoding="utf-8"?>
<!-- Generator: Adobe Illustrator 24.3.0, SVG Export Plug-In . SVG Version: 6.00 Build 0)  -->
<svg version="1.1" id="Layer_1" xmlns="http://www.w3.org/2000/svg" xmlns:xlink="http://www.w3.org/1999/xlink" x="0px" y="0px"
	 viewBox="0 0 561.6 529.92" style="enable-background:new 0 0 561.6 529.92;" xml:space="preserve">
<style type="text/css">
	.st0{fill:#003B4C;}
	.st1{fill:#22C55E;}
	.st2{fill:#F59E0B;}
</style>
<g>
	<path class="st0" d="M285.68,323.33c8.11,0.02,15.97,1.64,23.69,3.6c6.48,1.65,12.66,4.37,18.68,7.32
		c5.01,2.46,10.06,4.85,14.94,7.56c6.28,3.48,12.24,7.47,18.17,11.53c7.53,5.15,14.39,11.11,21.2,17.1
		c4.9,4.31,9.37,9.14,13.88,13.88c4.06,4.26,8.03,8.63,11.84,13.11c3.05,3.58,5.86,7.37,8.68,11.13c3.01,4.02,6.06,8.02,8.81,12.21
		c3.8,5.79,7.5,11.67,10.94,17.68c3.8,6.63,7.3,13.43,10.84,20.21c1.4,2.68,2.74,5.42,3.76,8.26c0.86,2.38,1.48,4.91,1.73,7.43
		c0.67,6.68-1.3,12.78-4.72,18.46c-3.09,5.13-7.72,8.22-13.14,10.59c-4.22,1.84-8.51,2.27-12.89,1.78
		c-5.73-0.64-10.83-2.97-15.39-6.62c-3.72-2.98-6.17-6.87-8.45-10.88c-4.26-7.48-8.27-15.12-12.57-22.58
		c-2.42-4.2-5.2-8.19-7.86-12.26c-2.74-4.21-5.34-8.52-8.33-12.55c-3.99-5.38-8.21-10.59-12.48-15.74c-3-3.61-6.16-7.1-9.44-10.47
		c-4.78-4.9-9.58-9.84-15.07-13.95c-6.88-5.15-13.82-10.27-21.68-13.9c-4.45-2.06-9.11-3.49-14.04-3.7
		c-5.92-0.25-11.24,1.55-15.63,5.52c-3.66,3.31-7.12,6.86-10.54,10.43c-2.64,2.75-5.1,5.68-7.63,8.54
		c-4.01,4.53-7.99,9.1-12.04,13.6c-1.49,1.65-3.16,3.14-4.7,4.75c-2.43,2.53-4.77,5.14-7.23,7.63c-2.13,2.15-4.39,4.19-6.6,6.26
		c-2.95,2.78-5.78,5.7-8.9,8.28c-5.46,4.52-11.09,8.84-16.67,13.22c-2.07,1.62-4.19,3.17-6.28,4.75c-0.32,0.24-0.65,0.47-0.98,0.67
		c-5.99,3.66-11.86,7.51-17.99,10.92c-7.24,4.03-14.63,7.79-22.37,10.85c-5.34,2.11-10.58,4.45-15.92,6.57
		c-7.31,2.89-14.79,3.19-22.32,1c-3.44-1-6.34-3.08-8.95-5.41c-3.54-3.16-6.29-6.97-7.9-11.52c-2.65-7.47-2.22-14.8,1.29-21.85
		c3.39-6.8,8.76-11.7,15.55-14.99c4.45-2.15,8.99-4.11,13.51-6.11c6.94-3.07,13.5-6.87,20.14-10.51c5.11-2.8,9.87-6.13,14.72-9.33
		c5.33-3.52,10.61-7.18,15.29-11.42c5.36-4.86,11.32-9.07,16.07-14.64c2.83-3.32,6.34-6.06,9.29-9.29
		c5.32-5.82,10.41-11.85,15.67-17.73c5.42-6.05,11.07-11.89,16.34-18.06c2.73-3.2,5.9-5.88,9.13-8.42
		c7.19-5.68,14.97-10.35,24.37-11.48C278.91,324.34,282.29,323.8,285.68,323.33z"/>
	<path class="st0" d="M242.83,206.7c10.55,0.07,20.35,1.11,29.9,4.11c7.95,2.5,15.54,5.76,22.51,10.39
		c3.32,2.21,6.82,4.13,10.17,6.29c5.29,3.42,10.51,6.94,15.77,10.4c2.46,1.62,4.93,3.25,7.45,4.78c0.65,0.39,1.33,1.21,2.36,0.49
		c0.17-0.12,1.19,0.51,1.36,0.96c0.42,1.18,1.29,1.74,2.3,2.26c5.17,2.67,10.17,5.73,15.53,7.97c9.11,3.81,18.6,4.92,28.39,2.6
		c7.03-1.67,12.92-5.28,18.29-9.91c3.01-2.6,6.04-5.18,8.89-7.95c3.37-3.27,6.5-6.78,9.83-10.1c3.57-3.56,7.39-6.86,12.13-8.76
		c3.1-1.24,6.3-2.22,9.73-2.27c4.43-0.07,8.8,0.31,12.94,1.94c4.06,1.6,7.6,4.07,10.63,7.19c4.83,4.97,7.14,10.91,7.35,17.9
		c0.23,7.66-2.6,14.12-6.58,20.37c-4.24,6.65-9.59,12.36-15.29,17.68c-7.58,7.06-15.44,13.85-24.26,19.37
		c-5.2,3.26-10.66,6.03-16.25,8.61c-5.1,2.36-10.38,4.09-15.74,5.6c-9.71,2.72-19.65,3.45-29.68,2.69
		c-7.59-0.57-15.02-2.01-22.25-4.46c-2.19-0.74-4.5-1.15-6.62-2.03c-3.67-1.53-7.32-3.15-10.82-5.02c-5.62-3-11.18-6.14-16.63-9.42
		c-3.75-2.26-7.28-4.89-10.93-7.32c-3.11-2.08-6.24-4.14-9.39-6.15c-3.49-2.23-7.02-4.4-10.54-6.59c-1.06-0.66-2.06-1.52-3.5-1.09
		c-0.28,0.08-0.9-0.17-1.01-0.42c-1.16-2.65-3.86-3.19-6.06-4.27c-3.07-1.5-6.34-2.61-9.54-3.83c-5.22-1.99-10.61-2.71-16.2-2.49
		c-3.74,0.15-7.01,1.38-10.13,3.24c-4.81,2.88-8.68,6.77-11.57,11.55c-2.97,4.91-5.93,9.83-8.14,15.16
		c-1.16,2.79-2.27,5.61-3.29,8.45c-1.99,5.55-3.84,11.15-5.87,16.69c-1.78,4.87-4.64,9.13-8.48,12.58c-6.54,5.85-14.22,8.12-23,6.98
		c-6.6-0.85-11.96-3.97-16.4-8.58c-5.61-5.84-7.59-13.13-7.33-21.13c0.13-4.05,1.19-7.89,2.47-11.67c1.37-4.08,2.83-8.13,4.4-12.14
		c1.54-3.93,3.37-7.76,4.89-11.7c1.99-5.14,4.59-9.98,7.17-14.81c2.7-5.05,5.93-9.81,8.96-14.68c1.22-1.96,2.4-3.95,3.8-5.77
		c3.25-4.22,6.67-8.29,10.49-12.06c3.61-3.56,7.58-6.58,11.76-9.38c1.59-1.06,3.18-2.2,4.93-2.92c6.63-2.73,13.24-5.43,20.29-7.12
		C229.12,207.2,236.27,207.16,242.83,206.7z"/>
	<path class="st1" d="M314.65,136.58c0.36,5.61-1.35,10.85-3.02,16.11c-1.11,3.5-2.23,7.02-4.38,10.04
		c-2.76,3.89-5.77,7.58-9.65,10.48c-2.16,1.61-4.14,3.48-6.32,5.05c-3.91,2.81-8.34,4.66-12.76,6.46
		c-5.93,2.41-12.24,2.84-18.53,3.24c-1.64,0.1-3.32-0.3-4.98-0.52c-1.42-0.19-2.83-0.56-4.25-0.67c-6.51-0.52-12.29-3.06-17.98-6.06
		c-3.24-1.71-5.76-4.23-8.48-6.53c-3.16-2.67-6.17-5.48-8.44-8.98c-1.38-2.13-2.83-4.23-4.1-6.43c-0.67-1.16-0.98-2.52-1.53-3.76
		c-3.32-7.45-4.51-15.21-4.02-23.35c0.27-4.39,0.45-8.75,1.51-13.05c0.64-2.57,1.44-5.02,2.88-7.28c0.97-1.53,1.61-3.29,2.33-4.97
		c0.83-1.92,1.94-3.61,3.43-5.13c1.44-1.47,2.51-3.3,3.95-4.77c1.88-1.92,3.82-3.87,6.01-5.4c3.91-2.73,7.99-5.23,12.08-7.68
		c2.83-1.69,5.98-2.67,9.26-3.03c3.73-0.41,7.47-0.95,11.21-0.96c4.46-0.02,8.92,0.46,13.38,0.73c2.52,0.15,4.79,1.13,7.06,2.12
		c2.34,1.02,4.74,1.91,7,3.08c1.83,0.94,3.53,2.15,5.2,3.36c2.58,1.87,5.19,3.72,7.57,5.82c1.27,1.12,2.07,2.76,3.13,4.13
		c0.71,0.92,1.49,1.8,2.28,2.66c0.8,0.86,1.92,1.54,2.43,2.54c1.57,3.03,3.03,6.14,4.31,9.3c1.96,4.83,2.98,9.93,3.37,15.11
		C314.82,130.99,314.65,133.79,314.65,136.58z"/>
	<path class="st2" d="M459.51,133.75c-0.1,4.08-3.34,6.93-6.27,7.73c-1.46,0.4-2.96,0.8-4.46,0.89c-4.86,0.31-9.12,2.43-13.21,4.69
		c-4.5,2.49-7.99,6.27-11.21,10.31c-2.64,3.32-4.3,7.03-5.38,11.08c-1.01,3.77-2.17,7.5-3.22,11.26c-0.96,3.44-3.85,5.85-7.17,6.08
		c-3.77,0.27-6.69-2.1-8.02-5.27c-0.37-0.87-0.62-1.83-0.74-2.76c-0.74-5.86-2.86-11.32-5.38-16.56c-1.32-2.73-3.5-5.15-5.69-7.31
		c-2.24-2.21-4.61-4.33-7.23-6.19c-4.24-3-8.83-4.67-13.92-5.23c-2.94-0.32-5.87-0.64-8.42-2.42c-2.6-1.82-3.78-5.15-2.78-8.22
		c1.13-3.45,3.48-5.41,7.06-6.01c2.83-0.47,5.66-0.96,8.45-1.62c1.68-0.4,3.33-1.07,4.91-1.79c1.95-0.89,3.89-1.86,5.71-2.99
		c5.42-3.37,9.09-8.34,12.34-13.71c1.6-2.64,2.45-5.5,3.24-8.44c0.94-3.53,2.06-7.02,3.18-10.5c0.79-2.45,2.46-4.14,5.04-4.61
		c2.91-0.54,5.68-0.2,7.38,2.6c0.94,1.54,1.67,3.25,2.22,4.97c1.15,3.65,1.75,7.51,3.25,11c2.25,5.24,4.73,10.43,9.18,14.36
		c6.64,5.86,14.18,9.56,23.02,10.63c3.22,0.39,5.97,1.84,7.31,5.07C459.08,131.73,459.24,132.76,459.51,133.75z"/>
</g>
</svg>
